<svg xmlns="http://www.w3.org/2000/svg" viewBox="0 0 200 200" fill="none">
  <defs>
    <linearGradient id="gTech" x1="0" y1="0" x2="1" y2="1">
      <stop offset="0%" stop-color="#3b82f6"/>
      <stop offset="100%" stop-color="#06b6d4"/>
    </linearGradient>
    <filter id="gl1" x="-50%" y="-50%" width="200%" height="200%">
      <feGaussianBlur stdDeviation="3"/>
    </filter>
  </defs>

  <circle cx="100" cy="100" r="85" fill="url(#gTech)" opacity="0.08" filter="url(#gl1)"/>
  <circle cx="100" cy="100" r="85" stroke="url(#gTech)" stroke-width="1.5" fill="none" opacity="0.3"/>

  <line x1="30" y1="140" x2="170" y2="140" stroke="#1e293b" stroke-width="0.5" stroke-dasharray="2 3"/>
  <line x1="30" y1="100" x2="170" y2="100" stroke="#1e293b" stroke-width="0.5" stroke-dasharray="2 3"/>
  <line x1="30" y1="60"  x2="170" y2="60"  stroke="#1e293b" stroke-width="0.5" stroke-dasharray="2 3"/>

  <line x1="50" y1="75"  x2="50"  y2="135" stroke="#38bdf8" stroke-width="1.5"/>
  <rect x="45" y="90" width="10" height="30" fill="#38bdf8"/>

  <line x1="75" y1="60"  x2="75"  y2="130" stroke="#1e40af" stroke-width="1.5"/>
  <rect x="70" y="70" width="10" height="45" fill="#1e40af"/>

  <line x1="100" y1="55" x2="100" y2="110" stroke="#38bdf8" stroke-width="1.5"/>
  <rect x="95" y="65" width="10" height="35" fill="#38bdf8"/>

  <line x1="125" y1="45" x2="125" y2="95"  stroke="#38bdf8" stroke-width="1.5"/>
  <rect x="120" y="55" width="10" height="30" fill="#38bdf8"/>

  <line x1="150" y1="40" x2="150" y2="90"  stroke="#1e40af" stroke-width="1.5"/>
  <rect x="145" y="50" width="10" height="25" fill="#1e40af"/>

  <path d="M35 130 L45 115 L55 130 Z" fill="#38bdf8" stroke="#38bdf8" stroke-width="1"/>
  <path d="M155 50 L165 65 L175 50 Z" fill="#1e40af" stroke="#1e40af" stroke-width="1"/>

  <path d="M40 115 Q100 85, 160 55" stroke="url(#gTech)" stroke-width="2.5" fill="none" opacity="0.9"/>
</svg>
